%TF.GenerationSoftware,KiCad,Pcbnew,8.0.7*%
%TF.CreationDate,2025-02-15T21:45:33+09:00*%
%TF.ProjectId,LoenahCS-left,4c6f656e-6168-4435-932d-6c6566742e6b,rev?*%
%TF.SameCoordinates,Original*%
%TF.FileFunction,Legend,Top*%
%TF.FilePolarity,Positive*%
%FSLAX46Y46*%
G04 Gerber Fmt 4.6, Leading zero omitted, Abs format (unit mm)*
G04 Created by KiCad (PCBNEW 8.0.7) date 2025-02-15 21:45:33*
%MOMM*%
%LPD*%
G01*
G04 APERTURE LIST*
%ADD10C,0.150000*%
%ADD11C,0.120000*%
%ADD12C,0.800000*%
%ADD13O,2.000000X1.600000*%
%ADD14R,1.700000X1.700000*%
%ADD15O,1.700000X1.700000*%
%ADD16C,1.750000*%
%ADD17C,3.987800*%
%ADD18C,3.300000*%
%ADD19C,1.879600*%
G04 APERTURE END LIST*
D10*
X178266666Y-87054819D02*
X178266666Y-87769104D01*
X178266666Y-87769104D02*
X178219047Y-87911961D01*
X178219047Y-87911961D02*
X178123809Y-88007200D01*
X178123809Y-88007200D02*
X177980952Y-88054819D01*
X177980952Y-88054819D02*
X177885714Y-88054819D01*
X179266666Y-88054819D02*
X178695238Y-88054819D01*
X178980952Y-88054819D02*
X178980952Y-87054819D01*
X178980952Y-87054819D02*
X178885714Y-87197676D01*
X178885714Y-87197676D02*
X178790476Y-87292914D01*
X178790476Y-87292914D02*
X178695238Y-87340533D01*
%TO.C,U2*%
X170662505Y-99340002D02*
X170662505Y-93240003D01*
X182762505Y-93240002D02*
X170662505Y-93240003D01*
X182762505Y-93490002D02*
X184762504Y-93490002D01*
X182762505Y-99090002D02*
X184762504Y-99090002D01*
X182762505Y-99340002D02*
X170662505Y-99340002D01*
X182762505Y-99340002D02*
X182762505Y-93240002D01*
X184762504Y-99090002D02*
X184762504Y-93490002D01*
D11*
%TO.C,J1*%
X169479996Y-88890004D02*
X169479995Y-91550002D01*
X177159994Y-88889999D02*
X169479996Y-88890004D01*
X177159994Y-88889999D02*
X177159997Y-91550003D01*
X177159997Y-91550003D02*
X169479995Y-91550002D01*
X178429998Y-88890000D02*
X179759997Y-88890001D01*
X179759997Y-88890001D02*
X179759998Y-90220002D01*
%TD*%
%LPC*%
D12*
%TO.C,U2*%
X181162505Y-96290002D03*
X174162505Y-96290002D03*
D13*
X171462505Y-93990002D03*
X172562506Y-98590001D03*
X176562507Y-98590002D03*
X179562503Y-98590001D03*
%TD*%
D14*
%TO.C,J1*%
X178429997Y-90220001D03*
D15*
X175889996Y-90220001D03*
X173349996Y-90220000D03*
X170809994Y-90220002D03*
%TD*%
D16*
%TO.C,MX25*%
X121720003Y-125817507D03*
D17*
X116640002Y-125817506D03*
D16*
X111560001Y-125817505D03*
D18*
X112830002Y-123277504D03*
X119180004Y-120737505D03*
%TD*%
D16*
%TO.C,MX16*%
X140770002Y-91527495D03*
D17*
X135690001Y-91527494D03*
D16*
X130610000Y-91527493D03*
D18*
X131880001Y-88987492D03*
X138230003Y-86447493D03*
%TD*%
D16*
%TO.C,MX11*%
X159820004Y-76287506D03*
D17*
X154740003Y-76287505D03*
D16*
X149660002Y-76287504D03*
D18*
X150930003Y-73747503D03*
X157280005Y-71207504D03*
%TD*%
D16*
%TO.C,MX17*%
X159819998Y-95337503D03*
D17*
X154739997Y-95337502D03*
D16*
X149659996Y-95337501D03*
D18*
X150929997Y-92797500D03*
X157279999Y-90257501D03*
%TD*%
D16*
%TO.C,MX1*%
X83620002Y-62000006D03*
D17*
X78540003Y-62000006D03*
D16*
X73460001Y-62000005D03*
D18*
X74730003Y-59460005D03*
X81080001Y-56920006D03*
%TD*%
D16*
%TO.C,MX4*%
X140770004Y-53427502D03*
D17*
X135690003Y-53427501D03*
D16*
X130610002Y-53427500D03*
D18*
X131880003Y-50887499D03*
X138230005Y-48347500D03*
%TD*%
D16*
%TO.C,MX28*%
X178869997Y-110577508D03*
D17*
X173789996Y-110577507D03*
D16*
X168709995Y-110577506D03*
D18*
X169979996Y-108037505D03*
X176329998Y-105497506D03*
%TD*%
D16*
%TO.C,MX13*%
X83619998Y-100100006D03*
D17*
X78539997Y-100100005D03*
D16*
X73459996Y-100100004D03*
D18*
X74729997Y-97560003D03*
X81079999Y-95020004D03*
%TD*%
D16*
%TO.C,MX2*%
X102670003Y-52475000D03*
D17*
X97590002Y-52474999D03*
D16*
X92510001Y-52474998D03*
D18*
X93780002Y-49934997D03*
X100130004Y-47394998D03*
%TD*%
D16*
%TO.C,MX22*%
X140770006Y-110577501D03*
D17*
X135690005Y-110577500D03*
D16*
X130610004Y-110577499D03*
D18*
X131880005Y-108037498D03*
X138230007Y-105497499D03*
%TD*%
D16*
%TO.C,MX3*%
X121719998Y-49617503D03*
D17*
X116639997Y-49617502D03*
D16*
X111559996Y-49617501D03*
D18*
X112829997Y-47077500D03*
X119179999Y-44537501D03*
%TD*%
D16*
%TO.C,MX24*%
X102669999Y-128675000D03*
D17*
X97589998Y-128674999D03*
D16*
X92509997Y-128674998D03*
D18*
X93779998Y-126134997D03*
X100130000Y-123594998D03*
%TD*%
D16*
%TO.C,MX18*%
X64569996Y-109625009D03*
D17*
X59489995Y-109625008D03*
D16*
X54409994Y-109625007D03*
D18*
X55679995Y-107085006D03*
X62029997Y-104545007D03*
%TD*%
D16*
%TO.C,MX27*%
X164243826Y-136282771D03*
D17*
X162096925Y-140886813D03*
D16*
X159950022Y-145490858D03*
D18*
X158184725Y-143266397D03*
X158566332Y-136437895D03*
%TD*%
D16*
%TO.C,MX10*%
X140770004Y-72477500D03*
D17*
X135690003Y-72477499D03*
D16*
X130610002Y-72477498D03*
D18*
X131880003Y-69937497D03*
X138230005Y-67397498D03*
%TD*%
D16*
%TO.C,MX26*%
X147423084Y-139299126D03*
D17*
X142819040Y-137152225D03*
D16*
X138214996Y-135005324D03*
D18*
X140439460Y-133240027D03*
X147267963Y-133621630D03*
%TD*%
D16*
%TO.C,MX7*%
X83620002Y-81050008D03*
D17*
X78540001Y-81050007D03*
D16*
X73460000Y-81050006D03*
D18*
X74730001Y-78510005D03*
X81080003Y-75970006D03*
%TD*%
D16*
%TO.C,MX20*%
X102670006Y-109625006D03*
D17*
X97590005Y-109625005D03*
D16*
X92510004Y-109625004D03*
D18*
X93780005Y-107085003D03*
X100130007Y-104545004D03*
%TD*%
D16*
%TO.C,MX15*%
X121720001Y-87717498D03*
D17*
X116640000Y-87717497D03*
D16*
X111559999Y-87717496D03*
D18*
X112830000Y-85177495D03*
X119180002Y-82637496D03*
%TD*%
D16*
%TO.C,MX14*%
X102670008Y-90575009D03*
D17*
X97590007Y-90575008D03*
D16*
X92510006Y-90575007D03*
D18*
X93780007Y-88035006D03*
X100130009Y-85495007D03*
%TD*%
D16*
%TO.C,MX19*%
X83619997Y-119150008D03*
D17*
X78539996Y-119150007D03*
D16*
X73459995Y-119150006D03*
D18*
X74729996Y-116610005D03*
X81079998Y-114070006D03*
%TD*%
D16*
%TO.C,MX21*%
X121720005Y-106767508D03*
D17*
X116640004Y-106767507D03*
D16*
X111560003Y-106767506D03*
D18*
X112830004Y-104227505D03*
X119180006Y-101687506D03*
%TD*%
D16*
%TO.C,MX12*%
X64570004Y-90575002D03*
D17*
X59490003Y-90575001D03*
D16*
X54410002Y-90575000D03*
D18*
X55680003Y-88034999D03*
X62030005Y-85495000D03*
%TD*%
D16*
%TO.C,MX6*%
X64570000Y-71525002D03*
D17*
X59489999Y-71525001D03*
D16*
X54409998Y-71525000D03*
D18*
X55679999Y-68984999D03*
X62030001Y-66445000D03*
%TD*%
D16*
%TO.C,MX8*%
X102670001Y-71525001D03*
D17*
X97590000Y-71525000D03*
D16*
X92509999Y-71524999D03*
D18*
X93780000Y-68984998D03*
X100130002Y-66444999D03*
%TD*%
D16*
%TO.C,MX23*%
X159820003Y-114387502D03*
D17*
X154740002Y-114387501D03*
D16*
X149660001Y-114387500D03*
D18*
X150930002Y-111847499D03*
X157280004Y-109307500D03*
%TD*%
D19*
%TO.C,U1*%
X181449998Y-53437497D03*
X181449997Y-55977494D03*
X181449999Y-58517496D03*
X181449997Y-61057494D03*
X181449999Y-63597492D03*
X181449996Y-66137493D03*
X181449997Y-68677494D03*
X181449999Y-71217493D03*
X181449996Y-73757493D03*
X181449997Y-76297494D03*
X181449998Y-78837494D03*
X181449998Y-81377495D03*
X181450005Y-83917492D03*
X166209999Y-53437495D03*
X166209997Y-55977494D03*
X166209997Y-58517495D03*
X166209997Y-61057494D03*
X166209997Y-63597494D03*
X166209996Y-66137495D03*
X166209994Y-68677493D03*
X166209997Y-71217494D03*
X166209997Y-73757494D03*
X166209997Y-76297494D03*
X166209997Y-78837494D03*
X166209997Y-81377494D03*
X166210000Y-83917494D03*
%TD*%
D16*
%TO.C,MX9*%
X121720004Y-68667507D03*
D17*
X116640003Y-68667506D03*
D16*
X111560002Y-68667505D03*
D18*
X112830003Y-66127504D03*
X119180005Y-63587505D03*
%TD*%
D16*
%TO.C,MX5*%
X159820000Y-57237500D03*
D17*
X154739999Y-57237499D03*
D16*
X149659998Y-57237498D03*
D18*
X150929999Y-54697497D03*
X157280001Y-52157498D03*
%TD*%
%LPD*%
M02*
