M48
; DRILL file {KiCad 8.0.7} date 2025-02-15T21:45:33+0900
; FORMAT={-:-/ absolute / inch / decimal}
; #@! TF.CreationDate,2025-02-15T21:45:33+09:00
; #@! TF.GenerationSoftware,Kicad,Pcbnew,8.0.7
; #@! TF.FileFunction,NonPlated,1,2,NPTH
FMAT,2
INCH
; #@! TA.AperFunction,NonPlated,NPTH,ComponentDrill
T1C0.0315
; #@! TA.AperFunction,NonPlated,NPTH,ComponentDrill
T2C0.0689
; #@! TA.AperFunction,NonPlated,NPTH,ComponentDrill
T3C0.1570
%
G90
G05
T1
X6.8568Y-3.7909
X7.1324Y-3.7909
T2
X2.1421Y-4.3159
X2.1421Y-2.8159
X2.1421Y-3.5659
X2.5421Y-4.3159
X2.5421Y-2.8159
X2.5421Y-3.5659
X2.8921Y-4.6909
X2.8921Y-3.9409
X2.8921Y-3.1909
X2.8921Y-2.4409
X3.2921Y-4.6909
X3.2921Y-3.9409
X3.2921Y-2.4409
X3.2921Y-3.1909
X3.6421Y-5.0659
X3.6421Y-2.8159
X3.6421Y-2.0659
X3.6421Y-4.3159
X3.6421Y-3.5659
X4.0421Y-5.0659
X4.0421Y-2.8159
X4.0421Y-2.0659
X4.0421Y-4.3159
X4.0421Y-3.5659
X4.3921Y-1.9534
X4.3921Y-3.4534
X4.3921Y-4.9534
X4.3921Y-2.7034
X4.3921Y-4.2034
X4.7921Y-1.9534
X4.7921Y-3.4534
X4.7921Y-4.9534
X4.7921Y-2.7034
X4.7921Y-4.2034
X5.1421Y-3.6034
X5.1421Y-2.1034
X5.1421Y-2.8534
X5.1421Y-4.3534
X5.4415Y-5.3152
X5.5421Y-3.6034
X5.5421Y-2.1034
X5.5421Y-2.8534
X5.5421Y-4.3534
X5.8041Y-5.4842
X5.8921Y-3.7534
X5.8921Y-2.2534
X5.8921Y-4.5034
X5.8921Y-3.0034
X6.2921Y-3.7534
X6.2921Y-2.2534
X6.2921Y-4.5034
X6.2921Y-3.0034
X6.2972Y-5.728
X6.4663Y-5.3655
X6.6421Y-4.3534
X7.0421Y-4.3534
T3
X2.3421Y-4.3159
X2.3421Y-2.8159
X2.3421Y-3.5659
X3.0921Y-4.6909
X3.0921Y-3.9409
X3.0921Y-3.1909
X3.0921Y-2.4409
X3.8421Y-5.0659
X3.8421Y-2.8159
X3.8421Y-2.0659
X3.8421Y-4.3159
X3.8421Y-3.5659
X4.5921Y-1.9534
X4.5921Y-3.4534
X4.5921Y-4.9534
X4.5921Y-2.7034
X4.5921Y-4.2034
X5.3421Y-3.6034
X5.3421Y-2.1034
X5.3421Y-2.8534
X5.3421Y-4.3534
X5.6228Y-5.3997
X6.0921Y-3.7534
X6.0921Y-2.2534
X6.0921Y-4.5034
X6.0921Y-3.0034
X6.3818Y-5.5467
X6.8421Y-4.3534
M30
