M48
; DRILL file {KiCad 8.0.7} date 2025-02-15T21:45:33+0900
; FORMAT={-:-/ absolute / inch / decimal}
; #@! TF.CreationDate,2025-02-15T21:45:33+09:00
; #@! TF.GenerationSoftware,Kicad,Pcbnew,8.0.7
; #@! TF.FileFunction,Plated,1,2,PTH
FMAT,2
INCH
; #@! TA.AperFunction,Plated,PTH,ViaDrill
T1C0.0118
; #@! TA.AperFunction,Plated,PTH,ComponentDrill
T2C0.0354
; #@! TA.AperFunction,Plated,PTH,ComponentDrill
T3C0.0394
; #@! TA.AperFunction,Plated,PTH,ComponentDrill
T4C0.1181
%
G90
G05
T1
X2.0524Y-4.1372
X2.0524Y-2.7947
X2.0524Y-3.3872
X2.0524Y-3.1038
X2.8024Y-3.7622
X2.8024Y-3.0122
X2.8024Y-3.4346
X2.8024Y-4.5122
X2.8024Y-2.4197
X3.4717Y-4.9659
X3.5524Y-2.0447
X3.5524Y-2.6372
X3.5524Y-3.1827
X3.5524Y-4.1372
X3.5524Y-3.3872
X4.1807Y-3.5719
X4.1807Y-4.3671
X4.1807Y-3.7687
X4.1807Y-4.4852
X4.1886Y-3.0837
X4.1886Y-2.8947
X4.3024Y-2.5247
X4.3024Y-2.9807
X4.3024Y-3.2747
X4.3024Y-4.7747
X4.3024Y-1.9322
X4.3024Y-4.0247
X5.0524Y-3.4247
X5.0524Y-3.7517
X5.0524Y-2.0822
X5.0524Y-2.6747
X5.0524Y-4.1747
X5.2819Y-5.1538
X5.7563Y-3.3865
X5.7563Y-3.5204
X5.8024Y-2.2322
X5.8024Y-3.4603
X5.8024Y-4.3247
X5.8024Y-2.8247
X5.8024Y-3.5747
X6.0506Y-5.7671
X6.5354Y-3.552
X6.5354Y-3.611
X6.5524Y-4.1747
X6.5909Y-3.5021
X6.6382Y-3.5755
X6.8421Y-3.2805
X6.9839Y-3.4222
X7.03Y-3.3461
X7.0615Y-3.3747
X7.0945Y-2.8524
X7.0945Y-3.2618
X7.1519Y-3.3847
T3
X6.5437Y-2.7038
X6.5437Y-2.6038
X6.5437Y-2.2038
X6.5437Y-2.3038
X6.5437Y-2.4038
X6.5437Y-2.5038
X6.5437Y-2.8038
X6.5437Y-2.9038
X6.5437Y-3.0038
X6.5437Y-3.1038
X6.5437Y-3.2038
X6.5437Y-2.1038
X6.5437Y-3.3038
X6.7248Y-3.552
X6.8248Y-3.552
X6.9248Y-3.552
X7.0248Y-3.552
X7.1437Y-2.6038
X7.1437Y-2.9038
X7.1437Y-2.2038
X7.1437Y-2.4038
X7.1437Y-2.7038
X7.1437Y-3.0038
X7.1437Y-2.1038
X7.1437Y-3.1038
X7.1437Y-3.2038
X7.1437Y-2.3038
X7.1437Y-2.5038
X7.1437Y-2.8038
X7.1437Y-3.3038
T4
X2.1921Y-4.2159
X2.1921Y-2.7159
X2.1921Y-3.4659
X2.4421Y-4.1159
X2.4421Y-2.6159
X2.4421Y-3.3659
X2.9421Y-4.5909
X2.9421Y-3.8409
X2.9421Y-3.0909
X2.9421Y-2.3409
X3.1921Y-4.4909
X3.1921Y-3.7409
X3.1921Y-2.2409
X3.1921Y-2.9909
X3.6921Y-4.9659
X3.6921Y-2.7159
X3.6921Y-1.9659
X3.6921Y-4.2159
X3.6921Y-3.4659
X3.9421Y-4.8659
X3.9421Y-2.6159
X3.9421Y-1.8659
X3.9421Y-4.1159
X3.9421Y-3.3659
X4.4421Y-1.8534
X4.4421Y-3.3534
X4.4421Y-4.8534
X4.4421Y-2.6034
X4.4421Y-4.1034
X4.6921Y-1.7534
X4.6921Y-3.2534
X4.6921Y-4.7534
X4.6921Y-2.5034
X4.6921Y-4.0034
X5.1921Y-3.5034
X5.1921Y-2.0034
X5.1921Y-2.7534
X5.1921Y-4.2534
X5.4421Y-3.4034
X5.4421Y-1.9034
X5.4421Y-2.6534
X5.4421Y-4.1534
X5.5291Y-5.2457
X5.798Y-5.2607
X5.9421Y-3.6534
X5.9421Y-2.1534
X5.9421Y-4.4034
X5.9421Y-2.9034
X6.1921Y-3.5534
X6.1921Y-2.0534
X6.1921Y-4.3034
X6.1921Y-2.8034
X6.2277Y-5.6404
X6.2428Y-5.3716
X6.6921Y-4.2534
X6.9421Y-4.1534
T2
G00X6.7584Y-3.7004
M15
G01X6.7426Y-3.7004
M16
G05
G00X6.8017Y-3.8815
M15
G01X6.7859Y-3.8815
M16
G05
G00X6.9592Y-3.8815
M15
G01X6.9434Y-3.8815
M16
G05
G00X7.0773Y-3.8815
M15
G01X7.0615Y-3.8815
M16
G05
M30
