%TF.GenerationSoftware,KiCad,Pcbnew,8.0.7*%
%TF.CreationDate,2025-02-15T21:45:33+09:00*%
%TF.ProjectId,LoenahCS-left,4c6f656e-6168-4435-932d-6c6566742e6b,rev?*%
%TF.SameCoordinates,Original*%
%TF.FileFunction,Profile,NP*%
%FSLAX46Y46*%
G04 Gerber Fmt 4.6, Leading zero omitted, Abs format (unit mm)*
G04 Created by KiCad (PCBNEW 8.0.7) date 2025-02-15 21:45:33*
%MOMM*%
%LPD*%
G01*
G04 APERTURE LIST*
%TA.AperFunction,Profile*%
%ADD10C,0.050000*%
%TD*%
G04 APERTURE END LIST*
D10*
X107665006Y-43450003D02*
X107664998Y-40592502D01*
X50515001Y-118650004D02*
X50515006Y-62450002D01*
X50515006Y-62450002D02*
X69515003Y-62450001D01*
X69515002Y-52975006D02*
X69515003Y-62450001D01*
X88614999Y-43449998D02*
X107665006Y-43450003D01*
X106664997Y-134842492D02*
X116510846Y-134842504D01*
X106665007Y-137700006D02*
X88615002Y-137699997D01*
X164449506Y-157196655D02*
X182815000Y-117811730D01*
X69515002Y-52975006D02*
X88615007Y-52975004D01*
X125715002Y-40592495D02*
X125715002Y-44402499D01*
X107664998Y-40592502D02*
X125715002Y-40592495D01*
X88615002Y-137699997D02*
X88614998Y-128175008D01*
X164449506Y-157196655D02*
X116510846Y-134842504D01*
X88614998Y-128175008D02*
X69565004Y-128175000D01*
X182815001Y-52022491D02*
X182815000Y-117811730D01*
X69565002Y-118650004D02*
X50515003Y-118650003D01*
X144765005Y-48212503D02*
X163815002Y-48212500D01*
X125715002Y-44402499D02*
X144764999Y-44402505D01*
X106664997Y-134842492D02*
X106665007Y-137700006D01*
X88615007Y-52975004D02*
X88614999Y-43449998D01*
X163814997Y-52022486D02*
X182815001Y-52022491D01*
X163815002Y-48212500D02*
X163814997Y-52022486D01*
X69565002Y-118650004D02*
X69565004Y-128175000D01*
X144764999Y-44402505D02*
X144765005Y-48212503D01*
M02*
