M48
; DRILL file {KiCad 8.0.7} date 2025-02-15T21:48:02+0900
; FORMAT={-:-/ absolute / inch / decimal}
; #@! TF.CreationDate,2025-02-15T21:48:02+09:00
; #@! TF.GenerationSoftware,Kicad,Pcbnew,8.0.7
; #@! TF.FileFunction,NonPlated,1,2,NPTH
FMAT,2
INCH
; #@! TA.AperFunction,NonPlated,NPTH,ComponentDrill
T1C0.0315
; #@! TA.AperFunction,NonPlated,NPTH,ComponentDrill
T2C0.0689
; #@! TA.AperFunction,NonPlated,NPTH,ComponentDrill
T3C0.1570
%
G90
G05
T1
X2.3307Y-4.4764
X2.6063Y-4.4764
T2
X2.4263Y-5.0014
X2.8263Y-5.0014
X3.0022Y-6.0134
X3.1712Y-6.3759
X3.1763Y-2.9014
X3.1763Y-3.6514
X3.1763Y-5.1514
X3.1763Y-4.4014
X3.5763Y-2.9014
X3.5763Y-3.6514
X3.5763Y-5.1514
X3.5763Y-4.4014
X3.6644Y-6.1322
X3.9263Y-5.0014
X3.9263Y-4.2514
X3.9263Y-3.5014
X3.9263Y-2.7514
X4.0269Y-5.9631
X4.3263Y-5.0014
X4.3263Y-4.2514
X4.3263Y-3.5014
X4.3263Y-2.7514
X4.6763Y-5.6014
X4.6763Y-3.3514
X4.6763Y-2.6014
X4.6763Y-4.1014
X4.6763Y-4.8514
X5.0763Y-5.6014
X5.0763Y-3.3514
X5.0763Y-2.6014
X5.0763Y-4.1014
X5.0763Y-4.8514
X5.4263Y-3.4639
X5.4263Y-4.2139
X5.4263Y-5.7139
X5.4263Y-4.9639
X5.4263Y-2.7139
X5.8263Y-3.4639
X5.8263Y-4.2139
X5.8263Y-5.7139
X5.8263Y-4.9639
X5.8263Y-2.7139
X6.1763Y-4.5889
X6.1763Y-5.3389
X6.1763Y-3.8389
X6.1763Y-3.0889
X6.5763Y-4.5889
X6.5763Y-5.3389
X6.5763Y-3.8389
X6.5763Y-3.0889
X6.9263Y-4.9639
X6.9263Y-4.2139
X6.9263Y-3.4639
X7.3263Y-4.9639
X7.3263Y-4.2139
X7.3263Y-3.4639
T3
X2.6263Y-5.0014
X3.0867Y-6.1947
X3.3763Y-2.9014
X3.3763Y-3.6514
X3.3763Y-5.1514
X3.3763Y-4.4014
X3.8456Y-6.0476
X4.1263Y-5.0014
X4.1263Y-4.2514
X4.1263Y-3.5014
X4.1263Y-2.7514
X4.8763Y-5.6014
X4.8763Y-3.3514
X4.8763Y-2.6014
X4.8763Y-4.1014
X4.8763Y-4.8514
X5.6263Y-3.4639
X5.6263Y-4.2139
X5.6263Y-5.7139
X5.6263Y-4.9639
X5.6263Y-2.7139
X6.3763Y-4.5889
X6.3763Y-5.3389
X6.3763Y-3.8389
X6.3763Y-3.0889
X7.1263Y-4.9639
X7.1263Y-4.2139
X7.1263Y-3.4639
M30
