M48
; DRILL file {KiCad 8.0.7} date 2025-02-15T21:48:02+0900
; FORMAT={-:-/ absolute / inch / decimal}
; #@! TF.CreationDate,2025-02-15T21:48:02+09:00
; #@! TF.GenerationSoftware,Kicad,Pcbnew,8.0.7
; #@! TF.FileFunction,Plated,1,2,PTH
FMAT,2
INCH
; #@! TA.AperFunction,Plated,PTH,ViaDrill
T1C0.0118
; #@! TA.AperFunction,Plated,PTH,ComponentDrill
T2C0.0354
; #@! TA.AperFunction,Plated,PTH,ComponentDrill
T3C0.0394
; #@! TA.AperFunction,Plated,PTH,ComponentDrill
T4C0.1181
%
G90
G05
T1
X2.3114Y-4.214
X2.3114Y-4.1549
X2.3366Y-4.8226
X2.507Y-4.1152
X2.5755Y-3.997
X2.607Y-3.997
X2.607Y-4.1152
X2.7721Y-4.3117
X2.7957Y-4.288
X3.0548Y-5.7717
X3.0866Y-2.8801
X3.0866Y-4.9726
X3.0866Y-3.4726
X3.0866Y-4.2226
X3.2717Y-5.3125
X3.2717Y-5.4502
X3.5075Y-6.0081
X3.8051Y-3.7242
X3.8051Y-3.5037
X3.8366Y-4.8226
X3.8366Y-2.7301
X3.8366Y-3.3226
X3.8366Y-4.0726
X4.5866Y-5.4226
X4.5866Y-3.1726
X4.5866Y-3.9226
X4.5866Y-2.5801
X4.5866Y-4.6726
X4.5866Y-3.6219
X5.3366Y-4.7851
X5.3366Y-3.2851
X5.3366Y-3.74
X5.3366Y-4.0351
X5.3366Y-2.6926
X5.3366Y-5.5351
X6.0866Y-4.4101
X6.0866Y-5.1601
X6.0866Y-3.6601
X6.0866Y-3.0676
X6.0972Y-4.0707
X6.8366Y-4.7851
X6.8366Y-3.4426
X6.8366Y-3.7793
X6.8372Y-4.0351
T3
X2.3259Y-2.9518
X2.3259Y-3.2518
X2.3259Y-2.8518
X2.3259Y-3.0518
X2.3259Y-3.1518
X2.3259Y-3.3518
X2.3259Y-3.4518
X2.3259Y-3.5518
X2.3259Y-3.6518
X2.3259Y-3.8518
X2.3259Y-3.9518
X2.3259Y-2.7518
X2.3259Y-3.7518
X2.507Y-4.2075
X2.607Y-4.2075
X2.707Y-4.2075
X2.807Y-4.2075
X2.9259Y-3.2518
X2.9259Y-2.7518
X2.9259Y-2.8518
X2.9259Y-2.9518
X2.9259Y-3.0518
X2.9259Y-3.3518
X2.9259Y-3.5518
X2.9259Y-3.6518
X2.9259Y-3.7518
X2.9259Y-3.9518
X2.9259Y-3.1518
X2.9259Y-3.8518
X2.9259Y-3.4518
T4
X2.4763Y-4.9014
X2.7263Y-4.8014
X3.1139Y-6.0164
X3.2263Y-2.8014
X3.2263Y-3.5514
X3.2263Y-5.0514
X3.2263Y-4.3014
X3.3102Y-6.2008
X3.4763Y-2.7014
X3.4763Y-3.4514
X3.4763Y-4.9514
X3.4763Y-4.2014
X3.6674Y-6.0204
X3.8518Y-5.8241
X3.9763Y-4.9014
X3.9763Y-4.1514
X3.9763Y-3.4014
X3.9763Y-2.6514
X4.2263Y-4.8014
X4.2263Y-4.0514
X4.2263Y-3.3014
X4.2263Y-2.5514
X4.7263Y-5.5014
X4.7263Y-3.2514
X4.7263Y-2.5014
X4.7263Y-4.0014
X4.7263Y-4.7514
X4.9763Y-5.4014
X4.9763Y-3.1514
X4.9763Y-2.4014
X4.9763Y-3.9014
X4.9763Y-4.6514
X5.4763Y-3.3639
X5.4763Y-4.1139
X5.4763Y-5.6139
X5.4763Y-4.8639
X5.4763Y-2.6139
X5.7263Y-3.2639
X5.7263Y-4.0139
X5.7263Y-5.5139
X5.7263Y-4.7639
X5.7263Y-2.5139
X6.2263Y-4.4889
X6.2263Y-5.2389
X6.2263Y-3.7389
X6.2263Y-2.9889
X6.4763Y-4.3889
X6.4763Y-5.1389
X6.4763Y-3.6389
X6.4763Y-2.8889
X6.9763Y-4.8639
X6.9763Y-4.1139
X6.9763Y-3.3639
X7.2263Y-4.7639
X7.2263Y-4.0139
X7.2263Y-3.2639
T2
G00X2.3858Y-4.3858
M15
G01X2.4016Y-4.3858
M16
G05
G00X2.5039Y-4.3858
M15
G01X2.5197Y-4.3858
M16
G05
G00X2.6614Y-4.3858
M15
G01X2.6772Y-4.3858
M16
G05
G00X2.7047Y-4.5669
M15
G01X2.7205Y-4.5669
M16
G05
M30
