%TF.GenerationSoftware,KiCad,Pcbnew,8.0.7*%
%TF.CreationDate,2025-02-15T21:48:02+09:00*%
%TF.ProjectId,LoenahCS-right,4c6f656e-6168-4435-932d-72696768742e,rev?*%
%TF.SameCoordinates,Original*%
%TF.FileFunction,Soldermask,Bot*%
%TF.FilePolarity,Negative*%
%FSLAX46Y46*%
G04 Gerber Fmt 4.6, Leading zero omitted, Abs format (unit mm)*
G04 Created by KiCad (PCBNEW 8.0.7) date 2025-02-15 21:48:02*
%MOMM*%
%LPD*%
G01*
G04 APERTURE LIST*
G04 Aperture macros list*
%AMRoundRect*
0 Rectangle with rounded corners*
0 $1 Rounding radius*
0 $2 $3 $4 $5 $6 $7 $8 $9 X,Y pos of 4 corners*
0 Add a 4 corners polygon primitive as box body*
4,1,4,$2,$3,$4,$5,$6,$7,$8,$9,$2,$3,0*
0 Add four circle primitives for the rounded corners*
1,1,$1+$1,$2,$3*
1,1,$1+$1,$4,$5*
1,1,$1+$1,$6,$7*
1,1,$1+$1,$8,$9*
0 Add four rect primitives between the rounded corners*
20,1,$1+$1,$2,$3,$4,$5,0*
20,1,$1+$1,$4,$5,$6,$7,0*
20,1,$1+$1,$6,$7,$8,$9,0*
20,1,$1+$1,$8,$9,$2,$3,0*%
G04 Aperture macros list end*
%ADD10C,0.800000*%
%ADD11O,2.000000X1.600000*%
%ADD12R,1.700000X1.700000*%
%ADD13O,1.700000X1.700000*%
%ADD14RoundRect,0.225000X0.375000X-0.225000X0.375000X0.225000X-0.375000X0.225000X-0.375000X-0.225000X0*%
%ADD15C,1.879600*%
%ADD16C,1.750000*%
%ADD17C,3.987800*%
%ADD18C,3.300000*%
%ADD19RoundRect,0.250000X1.025000X1.000000X-1.025000X1.000000X-1.025000X-1.000000X1.025000X-1.000000X0*%
%ADD20RoundRect,0.225000X-0.045437X-0.434955X0.362401X-0.244776X0.045437X0.434955X-0.362401X0.244776X0*%
%ADD21RoundRect,0.250000X0.506347X1.339492X-1.351584X0.473124X-0.506347X-1.339492X1.351584X-0.473124X0*%
%ADD22RoundRect,0.135000X-0.135000X-0.185000X0.135000X-0.185000X0.135000X0.185000X-0.135000X0.185000X0*%
%ADD23RoundRect,0.135000X0.135000X0.185000X-0.135000X0.185000X-0.135000X-0.185000X0.135000X-0.185000X0*%
%ADD24RoundRect,0.250000X1.339492X-0.506347X0.473124X1.351584X-1.339492X0.506347X-0.473124X-1.351584X0*%
%ADD25RoundRect,0.225000X0.434955X-0.045437X0.244776X0.362401X-0.434955X0.045437X-0.244776X-0.362401X0*%
G04 APERTURE END LIST*
D10*
%TO.C,U2*%
X59200001Y-113699993D03*
X66200001Y-113699993D03*
D11*
X68900001Y-115999993D03*
X67800000Y-111399994D03*
X63799999Y-111399993D03*
X60800001Y-111399993D03*
%TD*%
D12*
%TO.C,J2*%
X71298480Y-106870001D03*
D13*
X68758479Y-106870001D03*
X66218480Y-106870002D03*
X63678477Y-106870002D03*
%TD*%
D14*
%TO.C,D1*%
X88615980Y-79154994D03*
X88615984Y-75854998D03*
%TD*%
D15*
%TO.C,U1*%
X74318483Y-69894994D03*
X74318483Y-72434992D03*
X74318483Y-74974993D03*
X74318483Y-77514992D03*
X74318484Y-80054991D03*
X74318482Y-82594991D03*
X74318483Y-85134992D03*
X74318485Y-87674991D03*
X74318483Y-90214992D03*
X74318483Y-92754992D03*
X74318483Y-95294992D03*
X74318484Y-97834993D03*
X74318483Y-100374992D03*
X59078485Y-69894993D03*
X59078483Y-72434992D03*
X59078482Y-74974995D03*
X59078483Y-77514992D03*
X59078483Y-80054992D03*
X59078482Y-82594993D03*
X59078483Y-85134992D03*
X59078483Y-87674992D03*
X59078483Y-90214992D03*
X59078483Y-92754992D03*
X59078485Y-95294992D03*
X59078483Y-97834992D03*
X59078484Y-100374991D03*
%TD*%
D16*
%TO.C,MX13*%
X109888488Y-107984998D03*
D17*
X104808488Y-107984999D03*
D16*
X99728488Y-107985000D03*
D18*
X100998490Y-105444997D03*
D19*
X97448487Y-105445002D03*
X110898486Y-102905000D03*
D18*
X107348490Y-102904997D03*
%TD*%
D20*
%TO.C,D25*%
X74660757Y-162241572D03*
X77651569Y-160846936D03*
%TD*%
D14*
%TO.C,D6*%
X88615985Y-98205011D03*
X88615991Y-94905011D03*
%TD*%
D16*
%TO.C,MX26*%
X102283486Y-151462815D03*
D17*
X97679443Y-153609717D03*
D16*
X93075400Y-155756619D03*
D18*
X93152961Y-152917867D03*
D21*
X89935567Y-154418169D03*
X101051955Y-146431931D03*
D18*
X97834565Y-147932221D03*
%TD*%
D16*
%TO.C,MX15*%
X147988487Y-107032496D03*
D17*
X142908487Y-107032497D03*
D16*
X137828487Y-107032498D03*
D18*
X139098489Y-104492495D03*
D19*
X135548486Y-104492500D03*
X148998485Y-101952498D03*
D18*
X145448489Y-101952495D03*
%TD*%
D14*
%TO.C,D2*%
X107665981Y-75344996D03*
X107665985Y-72045000D03*
%TD*%
D16*
%TO.C,MX2*%
X109888492Y-69885001D03*
D17*
X104808492Y-69885002D03*
D16*
X99728492Y-69885003D03*
D18*
X100998494Y-67345000D03*
D19*
X97448491Y-67345005D03*
X110898490Y-64805003D03*
D18*
X107348494Y-64805000D03*
%TD*%
D16*
%TO.C,MX7*%
X109888491Y-88934998D03*
D17*
X104808491Y-88934999D03*
D16*
X99728491Y-88935000D03*
D18*
X100998493Y-86394997D03*
D19*
X97448490Y-86395002D03*
X110898489Y-83855000D03*
D18*
X107348493Y-83854997D03*
%TD*%
D16*
%TO.C,MX19*%
X109888484Y-127034999D03*
D17*
X104808484Y-127035000D03*
D16*
X99728484Y-127035001D03*
D18*
X100998486Y-124494998D03*
D19*
X97448483Y-124495003D03*
X110898482Y-121955001D03*
D18*
X107348486Y-121954998D03*
%TD*%
D16*
%TO.C,MX16*%
X167038491Y-116557497D03*
D17*
X161958491Y-116557498D03*
D16*
X156878491Y-116557499D03*
D18*
X158148493Y-114017496D03*
D19*
X154598490Y-114017501D03*
X168048489Y-111477499D03*
D18*
X164498493Y-111477496D03*
%TD*%
D22*
%TO.C,R2*%
X59698487Y-105535001D03*
X60718487Y-105535001D03*
%TD*%
D14*
%TO.C,D5*%
X164815984Y-83917494D03*
X164815988Y-80617498D03*
%TD*%
%TO.C,D24*%
X69565995Y-132749998D03*
X69565995Y-129450002D03*
%TD*%
D16*
%TO.C,MX14*%
X128938491Y-104174991D03*
D17*
X123858491Y-104174992D03*
D16*
X118778491Y-104174993D03*
D18*
X120048493Y-101634990D03*
D19*
X116498490Y-101634995D03*
X129948489Y-99094993D03*
D18*
X126398493Y-99094990D03*
%TD*%
D16*
%TO.C,MX22*%
X167038491Y-135607495D03*
D17*
X161958491Y-135607496D03*
D16*
X156878491Y-135607497D03*
D18*
X158148493Y-133067494D03*
D19*
X154598490Y-133067499D03*
X168048489Y-130527497D03*
D18*
X164498493Y-130527494D03*
%TD*%
D23*
%TO.C,R1*%
X60718485Y-107035003D03*
X59698485Y-107035003D03*
%TD*%
D16*
%TO.C,MX1*%
X90838484Y-73694994D03*
D17*
X85758484Y-73694995D03*
D16*
X80678484Y-73694996D03*
D18*
X81948486Y-71154993D03*
D19*
X78398483Y-71154998D03*
X91848482Y-68614996D03*
D18*
X88298486Y-68614993D03*
%TD*%
D14*
%TO.C,D23*%
X183865985Y-131797491D03*
X183865985Y-128497495D03*
%TD*%
%TO.C,D19*%
X107665991Y-132494998D03*
X107665991Y-129195002D03*
%TD*%
%TO.C,D8*%
X126715985Y-90585001D03*
X126715985Y-87285005D03*
%TD*%
%TO.C,D27*%
X126715987Y-147734992D03*
X126715987Y-144434996D03*
%TD*%
D16*
%TO.C,MX11*%
X186088492Y-87982503D03*
D17*
X181008492Y-87982504D03*
D16*
X175928492Y-87982505D03*
D18*
X177198494Y-85442502D03*
D19*
X173648491Y-85442507D03*
X187098490Y-82902505D03*
D18*
X183548494Y-82902502D03*
%TD*%
D16*
%TO.C,MX4*%
X147988490Y-68932496D03*
D17*
X142908490Y-68932497D03*
D16*
X137828490Y-68932498D03*
D18*
X139098492Y-66392495D03*
D19*
X135548489Y-66392500D03*
X148998488Y-63852498D03*
D18*
X145448492Y-63852495D03*
%TD*%
D14*
%TO.C,D14*%
X126715992Y-109634992D03*
X126715992Y-106334996D03*
%TD*%
%TO.C,D20*%
X126715992Y-128939999D03*
X126715992Y-125640003D03*
%TD*%
%TO.C,D9*%
X145765986Y-93442501D03*
X145765986Y-90142505D03*
%TD*%
%TO.C,D3*%
X126715985Y-71534996D03*
X126715989Y-68235000D03*
%TD*%
D16*
%TO.C,MX17*%
X186088490Y-107032500D03*
D17*
X181008490Y-107032501D03*
D16*
X175928490Y-107032502D03*
D18*
X177198492Y-104492499D03*
D19*
X173648489Y-104492504D03*
X187098488Y-101952502D03*
D18*
X183548492Y-101952499D03*
%TD*%
D16*
%TO.C,MX8*%
X128938488Y-85125004D03*
D17*
X123858488Y-85125005D03*
D16*
X118778488Y-85125006D03*
D18*
X120048490Y-82585003D03*
D19*
X116498487Y-82585008D03*
X129948486Y-80045006D03*
D18*
X126398490Y-80045003D03*
%TD*%
D14*
%TO.C,D12*%
X88615990Y-117254995D03*
X88615990Y-113954999D03*
%TD*%
%TO.C,D18*%
X88615988Y-136559996D03*
X88615988Y-133260000D03*
%TD*%
D16*
%TO.C,MX18*%
X90838490Y-130844996D03*
D17*
X85758490Y-130844997D03*
D16*
X80678490Y-130844998D03*
D18*
X81948492Y-128304995D03*
D19*
X78398489Y-128305000D03*
X91848488Y-125764998D03*
D18*
X88298492Y-125764995D03*
%TD*%
D16*
%TO.C,MX21*%
X147988489Y-126082488D03*
D17*
X142908489Y-126082489D03*
D16*
X137828489Y-126082490D03*
D18*
X139098491Y-123542487D03*
D19*
X135548488Y-123542492D03*
X148998487Y-121002490D03*
D18*
X145448491Y-121002487D03*
%TD*%
D16*
%TO.C,MX5*%
X167038495Y-78457499D03*
D17*
X161958495Y-78457500D03*
D16*
X156878495Y-78457501D03*
D18*
X158148497Y-75917498D03*
D19*
X154598494Y-75917503D03*
X168048493Y-73377501D03*
D18*
X164498497Y-73377498D03*
%TD*%
D16*
%TO.C,MX3*%
X128938490Y-66074999D03*
D17*
X123858490Y-66075000D03*
D16*
X118778490Y-66075001D03*
D18*
X120048492Y-63534998D03*
D19*
X116498489Y-63535003D03*
X129948488Y-60995001D03*
D18*
X126398492Y-60994998D03*
%TD*%
D14*
%TO.C,D13*%
X107665990Y-113445004D03*
X107665990Y-110145008D03*
%TD*%
%TO.C,D21*%
X145765989Y-131797502D03*
X145765989Y-128497506D03*
%TD*%
D16*
%TO.C,MX23*%
X186088486Y-126082497D03*
D17*
X181008486Y-126082498D03*
D16*
X175928486Y-126082499D03*
D18*
X177198488Y-123542496D03*
D19*
X173648485Y-123542501D03*
X187098484Y-121002499D03*
D18*
X183548488Y-121002496D03*
%TD*%
D14*
%TO.C,D28*%
X145765991Y-150847501D03*
X145765991Y-147547505D03*
%TD*%
D16*
%TO.C,MX25*%
X80548465Y-161948350D03*
D17*
X78401562Y-157344304D03*
D16*
X76254661Y-152740262D03*
D18*
X79093409Y-152817825D03*
D24*
X77593115Y-149600431D03*
X85579353Y-160716825D03*
D18*
X84079057Y-157499427D03*
%TD*%
D14*
%TO.C,D7*%
X107665984Y-94395003D03*
X107665984Y-91095007D03*
%TD*%
%TO.C,D10*%
X164815988Y-102967499D03*
X164815988Y-99667503D03*
%TD*%
%TO.C,D4*%
X145765983Y-74392495D03*
X145765987Y-71092499D03*
%TD*%
D16*
%TO.C,MX12*%
X90838497Y-111794997D03*
D17*
X85758497Y-111794998D03*
D16*
X80678497Y-111794999D03*
D18*
X81948499Y-109254996D03*
D19*
X78398496Y-109255001D03*
X91848495Y-106714999D03*
D18*
X88298499Y-106714996D03*
%TD*%
D16*
%TO.C,MX10*%
X167038492Y-97507500D03*
D17*
X161958492Y-97507501D03*
D16*
X156878492Y-97507502D03*
D18*
X158148494Y-94967499D03*
D19*
X154598491Y-94967504D03*
X168048490Y-92427502D03*
D18*
X164498494Y-92427499D03*
%TD*%
D16*
%TO.C,MX24*%
X71788488Y-127035003D03*
D17*
X66708488Y-127035004D03*
D16*
X61628488Y-127035005D03*
D18*
X62898490Y-124495002D03*
D19*
X59348487Y-124495007D03*
X72798486Y-121955005D03*
D18*
X69248490Y-121955002D03*
%TD*%
D14*
%TO.C,D15*%
X145765987Y-112492496D03*
X145765987Y-109192500D03*
%TD*%
D16*
%TO.C,MX20*%
X128938491Y-123224991D03*
D17*
X123858491Y-123224992D03*
D16*
X118778491Y-123224993D03*
D18*
X120048493Y-120684990D03*
D19*
X116498490Y-120684995D03*
X129948489Y-118144993D03*
D18*
X126398493Y-118144990D03*
%TD*%
D16*
%TO.C,MX28*%
X147988488Y-145132493D03*
D17*
X142908488Y-145132494D03*
D16*
X137828488Y-145132495D03*
D18*
X139098490Y-142592492D03*
D19*
X135548487Y-142592497D03*
X148998486Y-140052495D03*
D18*
X145448490Y-140052492D03*
%TD*%
D16*
%TO.C,MX9*%
X147988486Y-87982497D03*
D17*
X142908486Y-87982498D03*
D16*
X137828486Y-87982499D03*
D18*
X139098488Y-85442496D03*
D19*
X135548485Y-85442501D03*
X148998484Y-82902499D03*
D18*
X145448488Y-82902496D03*
%TD*%
D14*
%TO.C,D17*%
X183865988Y-112492493D03*
X183865988Y-109192497D03*
%TD*%
%TO.C,D11*%
X183865989Y-93442494D03*
X183865989Y-90142498D03*
%TD*%
%TO.C,D22*%
X164815989Y-141322496D03*
X164815989Y-138022500D03*
%TD*%
D16*
%TO.C,MX27*%
X128938485Y-142274998D03*
D17*
X123858485Y-142274999D03*
D16*
X118778485Y-142275000D03*
D18*
X120048487Y-139734997D03*
D19*
X116498484Y-139735002D03*
X129948483Y-137195000D03*
D18*
X126398487Y-137194997D03*
%TD*%
D25*
%TO.C,D26*%
X102576717Y-157350530D03*
X101182077Y-154359718D03*
%TD*%
D14*
%TO.C,D16*%
X164815991Y-122017502D03*
X164815991Y-118717506D03*
%TD*%
D16*
%TO.C,MX6*%
X90838488Y-92744996D03*
D17*
X85758488Y-92744997D03*
D16*
X80678488Y-92744998D03*
D18*
X81948490Y-90204995D03*
D19*
X78398487Y-90205000D03*
X91848486Y-87664998D03*
D18*
X88298490Y-87664995D03*
%TD*%
M02*
