%TF.GenerationSoftware,KiCad,Pcbnew,8.0.7*%
%TF.CreationDate,2025-02-15T21:48:02+09:00*%
%TF.ProjectId,LoenahCS-right,4c6f656e-6168-4435-932d-72696768742e,rev?*%
%TF.SameCoordinates,Original*%
%TF.FileFunction,Profile,NP*%
%FSLAX46Y46*%
G04 Gerber Fmt 4.6, Leading zero omitted, Abs format (unit mm)*
G04 Created by KiCad (PCBNEW 8.0.7) date 2025-02-15 21:48:02*
%MOMM*%
%LPD*%
G01*
G04 APERTURE LIST*
%TA.AperFunction,Profile*%
%ADD10C,0.050000*%
%TD*%
G04 APERTURE END LIST*
D10*
X151933484Y-69432495D02*
X170983484Y-69432494D01*
X57683483Y-68479996D02*
X57683481Y-134269210D01*
X114833483Y-57049994D02*
X132883482Y-57049994D01*
X170983483Y-78957495D02*
X190033484Y-78957495D01*
X76048983Y-173654153D02*
X57683481Y-134269210D01*
X132883482Y-59907494D02*
X151933486Y-59907496D01*
X133883483Y-154157495D02*
X133883484Y-151299996D01*
X76733485Y-64669995D02*
X76733485Y-68479998D01*
X170983484Y-69432494D02*
X170983483Y-78957495D01*
X190033484Y-135107496D02*
X170983482Y-135107495D01*
X170983483Y-144632494D02*
X151933483Y-144632495D01*
X190033484Y-78957495D02*
X190033484Y-135107496D01*
X151933483Y-144632495D02*
X151933482Y-154157498D01*
X170983482Y-135107495D02*
X170983483Y-144632494D01*
X114833483Y-57049994D02*
X114833482Y-60859998D01*
X76048983Y-173654153D02*
X123987627Y-151299996D01*
X132883482Y-57049994D02*
X132883482Y-59907494D01*
X76733485Y-68479998D02*
X57683483Y-68479996D01*
X133883484Y-151299996D02*
X123987627Y-151299996D01*
X151933486Y-59907496D02*
X151933484Y-69432495D01*
X151933482Y-154157498D02*
X133883483Y-154157495D01*
X95783482Y-64669994D02*
X76733485Y-64669995D01*
X95783481Y-60859998D02*
X95783482Y-64669994D01*
X114833482Y-60859998D02*
X95783481Y-60859998D01*
M02*
